<?xml version="1.0" standalone="no"?>
<!DOCTYPE svg PUBLIC "-//W3C//DTD SVG 20010904//EN"
 "http://www.w3.org/TR/2001/REC-SVG-20010904/DTD/svg10.dtd">
<svg version="1.0" xmlns="http://www.w3.org/2000/svg"
 width="24.000000pt" height="24.000000pt" viewBox="0 0 64.000000 64.000000"
 preserveAspectRatio="xMidYMid meet">

<g transform="translate(0.000000,64.000000) scale(0.100000,-0.100000)"
fill="#232333" stroke="none">
<path d="M245 621 c-72 -33 -105 -86 -105 -166 0 -54 14 -92 47 -127 l25 -26
-39 -18 c-83 -40 -156 -143 -170 -239 -5 -43 -5 -45 20 -45 22 0 26 5 31 44
21 140 165 243 310 222 24 -4 67 -21 97 -39 62 -37 114 -113 125 -183 5 -39 9
-44 31 -44 25 0 25 2 20 45 -14 96 -87 199 -170 239 l-39 18 25 26 c63 66 64
185 4 251 -30 32 -94 61 -137 61 -19 0 -53 -9 -75 -19z m135 -46 c49 -25 70
-62 70 -120 0 -58 -21 -95 -70 -120 -57 -30 -127 -12 -169 41 -26 33 -29 118
-5 153 39 55 116 76 174 46z"/>
</g>
</svg>
